<svg width="601" height="601" viewBox="0 0 601 601" fill="none" xmlns="http://www.w3.org/2000/svg">
<path d="M300.5 264.382C305.194 264.382 309.695 266.247 313.014 269.566C316.333 272.885 318.198 277.386 318.198 282.08C318.198 286.774 316.333 291.275 313.014 294.594C309.695 297.913 305.194 299.778 300.5 299.778C295.806 299.778 291.305 297.913 287.986 294.594C284.667 291.275 282.802 286.774 282.802 282.08C282.802 277.386 284.667 272.885 287.986 269.566C291.305 266.247 295.806 264.382 300.5 264.382ZM300.5 308.626C320.056 308.626 335.895 316.546 335.895 326.324V335.173H265.105V326.324C265.105 316.546 280.944 308.626 300.5 308.626Z" fill="#BDB3A8"/>
<path fill-rule="evenodd" clip-rule="evenodd" d="M300.5 438.47C377.098 438.47 439.192 376.375 439.192 299.778C439.192 223.18 377.098 161.085 300.5 161.085C223.902 161.085 161.808 223.18 161.808 299.778C161.808 376.375 223.902 438.47 300.5 438.47ZM300.139 417.522C365.367 417.522 418.244 364.644 418.244 299.416C418.244 234.189 365.367 181.311 300.139 181.311C234.911 181.311 182.034 234.189 182.034 299.416C182.034 364.644 234.911 417.522 300.139 417.522Z" fill="#C3B8A6"/>
<path fill-rule="evenodd" clip-rule="evenodd" d="M300.5 567.772C448.509 567.772 568.494 447.787 568.494 299.778C568.494 151.769 448.509 31.7837 300.5 31.7837C152.491 31.7837 32.506 151.769 32.506 299.778C32.506 447.787 152.491 567.772 300.5 567.772ZM300.5 543.71C435.22 543.71 544.433 434.498 544.433 299.778C544.433 165.057 435.22 55.845 300.5 55.845C165.78 55.845 56.5674 165.057 56.5674 299.778C56.5674 434.498 165.78 543.71 300.5 543.71Z" fill="#C3B8A6"/>
<circle cx="303.751" cy="170.837" r="42.9802" fill="#826F59"/>
<circle cx="558.02" cy="290.026" r="42.9802" fill="#826F59"/>
<circle cx="300.139" cy="558.02" r="42.9802" fill="#826F59"/>
<circle cx="42.9802" cy="290.026" r="42.9802" fill="#826F59"/>
<circle cx="303.751" cy="42.9802" r="42.9802" fill="#826F59"/>
<circle cx="300.139" cy="428.718" r="42.9802" fill="#826F59"/>
<path d="M303.751 28.8942C305.622 28.8942 307.418 29.629 308.741 30.9369C310.065 32.2449 310.809 34.0189 310.809 35.8686C310.809 37.7184 310.065 39.4924 308.741 40.8003C307.418 42.1083 305.622 42.8431 303.751 42.8431C301.879 42.8431 300.083 42.1083 298.76 40.8003C297.436 39.4924 296.693 37.7184 296.693 35.8686C296.693 34.0189 297.436 32.2449 298.76 30.9369C300.083 29.629 301.879 28.8942 303.751 28.8942ZM289.635 33.8759C290.764 33.8759 291.812 34.1748 292.72 34.7129C292.417 37.5624 293.264 40.3921 294.999 42.604C293.99 44.517 291.974 45.8322 289.635 45.8322C288.03 45.8322 286.491 45.2023 285.357 44.0812C284.222 42.9601 283.585 41.4395 283.585 39.854C283.585 38.2686 284.222 36.748 285.357 35.6269C286.491 34.5058 288.03 33.8759 289.635 33.8759ZM317.867 33.8759C319.471 33.8759 321.01 34.5058 322.144 35.6269C323.279 36.748 323.916 38.2686 323.916 39.854C323.916 41.4395 323.279 42.9601 322.144 44.0812C321.01 45.2023 319.471 45.8322 317.867 45.8322C315.527 45.8322 313.511 44.517 312.502 42.604C314.237 40.3921 315.084 37.5624 314.781 34.7129C315.689 34.1748 316.737 33.8759 317.867 33.8759ZM290.643 54.3012C290.643 50.1763 296.511 46.8285 303.751 46.8285C310.99 46.8285 316.858 50.1763 316.858 54.3012V57.7884H290.643V54.3012ZM279.552 57.7884V54.7993C279.552 52.0295 283.363 49.698 288.525 49.0205C287.336 50.3755 286.61 52.2487 286.61 54.3012V57.7884H279.552ZM327.949 57.7884H320.891V54.3012C320.891 52.2487 320.165 50.3755 318.976 49.0205C324.138 49.698 327.949 52.0295 327.949 54.7993V57.7884Z" fill="#FFFBED"/>
<path d="M561.588 278.234H572.106V296.931H558.959L558.208 293.192H547.69V306.279H543.934V274.495H560.837L561.588 278.234ZM560.837 293.192H564.593V289.452H568.35V285.713H564.593V281.974H560.837V285.713L558.959 281.974V278.234H555.203V281.974H551.446V278.234H547.69V281.974H551.446V285.713H547.69V289.452H551.446V285.713H555.203V289.452H558.959V285.713L560.837 289.452V293.192ZM555.203 285.713V281.974H558.959V285.713H555.203ZM560.837 285.713H564.593V289.452H560.837V285.713Z" fill="#FFF2E3"/>
<g clip-path="url(#clip0_2_7)">
<path d="M291.471 162.711H313.141V176.255H291.471M313.141 178.964C313.86 178.964 314.549 178.678 315.057 178.17C315.565 177.662 315.85 176.973 315.85 176.255V162.711C315.85 161.207 314.631 160.002 313.141 160.002H291.471C289.967 160.002 288.762 161.207 288.762 162.711V176.255C288.762 176.973 289.047 177.662 289.555 178.17C290.063 178.678 290.752 178.964 291.471 178.964H286.053V181.673H318.559V178.964H313.141Z" fill="#FFFBED"/>
</g>
<path d="M300.139 424.712C301.776 424.712 303.346 425.363 304.504 426.52C305.661 427.678 306.312 429.248 306.312 430.885C306.312 432.522 305.661 434.092 304.504 435.25C303.346 436.408 301.776 437.058 300.139 437.058C298.502 437.058 296.932 436.408 295.774 435.25C294.616 434.092 293.966 432.522 293.966 430.885C293.966 429.248 294.616 427.678 295.774 426.52C296.932 425.363 298.502 424.712 300.139 424.712ZM286.327 432.428H283.163V429.342H286.327C287.021 422.907 292.16 417.768 298.596 417.073V413.91H301.682V417.073C308.117 417.768 313.256 422.907 313.951 429.342H317.114V432.428H313.951C313.256 438.864 308.117 444.002 301.682 444.697V447.861H298.596V444.697C292.16 444.002 287.021 438.864 286.327 432.428ZM300.139 420.083C297.274 420.083 294.526 421.221 292.5 423.247C290.474 425.272 289.336 428.02 289.336 430.885C289.336 433.75 290.474 436.498 292.5 438.524C294.526 440.55 297.274 441.688 300.139 441.688C303.004 441.688 305.751 440.55 307.777 438.524C309.803 436.498 310.941 433.75 310.941 430.885C310.941 428.02 309.803 425.272 307.777 423.247C305.751 421.221 303.004 420.083 300.139 420.083Z" fill="#FFFBED"/>
<path d="M300.5 577.884L297.986 575.598C289.058 567.509 283.163 562.157 283.163 555.627C283.163 550.275 287.359 546.101 292.699 546.101C295.715 546.101 298.61 547.504 300.5 549.704C302.39 547.504 305.285 546.101 308.301 546.101C313.641 546.101 317.837 550.275 317.837 555.627C317.837 562.157 311.942 567.509 303.014 575.598L300.5 577.884Z" fill="#FFFBED"/>
<path d="M53.4543 292.987C54.8032 292.987 56.2374 293.143 57.7228 293.456V296.388C56.6642 296.075 55.23 295.918 53.4543 295.918C50.2103 295.918 47.6663 296.563 45.7711 297.853V294.55C47.7687 293.514 50.3298 292.987 53.4543 292.987ZM45.7711 289.331C47.9736 288.295 50.5347 287.787 53.4543 287.787C54.8032 287.787 56.2374 287.924 57.7228 288.237V291.169C56.6642 290.856 55.23 290.7 53.4543 290.7C50.2103 290.7 47.6663 291.364 45.7711 292.635M53.4543 285.5C50.2103 285.5 47.6663 286.126 45.7711 287.455V284.21C47.8712 283.116 50.4322 282.568 53.4543 282.568C54.8032 282.568 56.2374 282.725 57.7228 283.018V286.048C56.4593 285.676 55.008 285.5 53.4543 285.5ZM59.4302 301.137V278.659C57.6545 278.014 55.6568 277.682 53.4543 277.682C49.9542 277.682 46.8297 278.659 44.0637 280.614V303.092C46.8297 301.137 49.9542 300.16 53.4543 300.16C55.4861 300.16 57.4837 300.473 59.4302 301.137ZM53.4543 273.773C57.4667 273.773 60.6083 274.75 62.8449 276.705V305.164C62.8449 305.398 62.7596 305.633 62.5718 305.848C62.3839 306.024 62.1791 306.18 61.9912 306.18C61.8034 306.18 61.6668 306.141 61.5644 306.082C59.3789 304.734 56.6642 304.069 53.4543 304.069C49.9542 304.069 46.8297 305.046 44.0637 307.001C41.7758 305.046 38.6513 304.069 34.6731 304.069C31.8388 304.069 29.1241 304.773 26.563 306.161C26.5118 306.18 26.4435 306.18 26.3581 306.219C26.2898 306.239 26.2215 306.258 26.1361 306.258C25.9483 306.258 25.7434 306.18 25.5556 306.024C25.3678 305.809 25.2824 305.594 25.2824 305.34V276.705C27.5703 274.75 30.7119 273.773 34.6731 273.773C38.6513 273.773 41.7758 274.75 44.0637 276.705C46.3516 274.75 49.4761 273.773 53.4543 273.773Z" fill="#FFFBED"/>
<defs>
<clipPath id="clip0_2_7">
<rect width="32.506" height="32.506" fill="white" transform="translate(286.053 154.584)"/>
</clipPath>
</defs>
</svg>
