<svg width="30" height="244" viewBox="0 0 30 244" fill="none" xmlns="http://www.w3.org/2000/svg">
<path d="M29 243.21L9.36364 243.21L9.36364 236.511L13.0966 236.511L13.0966 236.307C11.8693 235.898 10.8977 235.199 10.1818 234.21C9.46591 233.222 9.10795 232.045 9.10795 230.682C9.10795 229.301 9.47443 228.112 10.2074 227.115C10.9318 226.118 11.8949 225.517 13.0966 225.312L13.0966 225.108C11.8949 224.776 10.9318 224.068 10.2074 222.986C9.47443 221.903 9.10795 220.633 9.10795 219.176C9.10795 217.293 9.71307 215.767 10.9233 214.599C12.1335 213.423 13.7443 212.835 15.7557 212.835L29 212.835L29 219.892L17.5455 219.892C16.6847 219.892 16.0114 220.109 15.5256 220.544C15.0312 220.979 14.7841 221.562 14.7841 222.295C14.7841 223.02 15.0312 223.595 15.5256 224.021C16.0114 224.439 16.6847 224.648 17.5455 224.648L29 224.648L29 231.398L17.5455 231.398C16.6847 231.398 16.0114 231.615 15.5256 232.05C15.0312 232.484 14.7841 233.068 14.7841 233.801C14.7841 234.287 14.8949 234.705 15.1165 235.054C15.3381 235.403 15.6577 235.676 16.0753 235.872C16.4844 236.06 16.9744 236.153 17.5455 236.153L29 236.153L29 243.21ZM29.3068 203.883C29.3068 205.136 29.1023 206.244 28.6932 207.207C28.2756 208.162 27.6449 208.912 26.8011 209.457C25.9574 210.002 24.8835 210.275 23.5795 210.275C22.5057 210.275 21.5895 210.092 20.831 209.725C20.0639 209.359 19.4375 208.848 18.9517 208.191C18.4659 207.535 18.0952 206.772 17.8395 205.903C17.5838 205.025 17.4176 204.079 17.3409 203.065C17.2557 201.966 17.1534 201.083 17.0341 200.419C16.9062 199.745 16.7315 199.26 16.5099 198.961C16.2798 198.663 15.9773 198.514 15.6023 198.514L15.5511 198.514C15.0398 198.514 14.6477 198.71 14.375 199.102C14.1023 199.494 13.9659 199.997 13.9659 200.61C13.9659 201.284 14.1151 201.833 14.4134 202.26C14.7031 202.677 15.1506 202.929 15.7557 203.014L15.7557 209.508C14.5625 209.423 13.4631 209.044 12.4574 208.37C11.4432 207.689 10.6335 206.696 10.0284 205.392C9.41477 204.088 9.10795 202.46 9.10795 200.508C9.10795 199.102 9.27415 197.841 9.60653 196.724C9.9304 195.608 10.3864 194.657 10.9744 193.873C11.554 193.089 12.2358 192.493 13.0199 192.083C13.7955 191.666 14.6392 191.457 15.5511 191.457L29 191.457L29 198.054L26.2386 198.054L26.2386 198.207C26.9716 198.599 27.5639 199.076 28.0156 199.639C28.4673 200.193 28.7955 200.828 29 201.544C29.2045 202.251 29.3068 203.031 29.3068 203.883ZM24.858 201.582C24.858 201.045 24.7472 200.542 24.5256 200.073C24.304 199.596 23.9844 199.208 23.5668 198.91C23.1491 198.612 22.642 198.463 22.0455 198.463L20.4091 198.463C20.4858 198.65 20.5582 198.85 20.6264 199.064C20.6946 199.268 20.7585 199.49 20.8182 199.728C20.8778 199.958 20.9332 200.206 20.9844 200.47C21.0355 200.725 21.0824 200.994 21.125 201.275C21.2102 201.821 21.3509 202.268 21.5469 202.618C21.7344 202.958 21.9687 203.214 22.25 203.385C22.5227 203.546 22.8295 203.627 23.1705 203.627C23.7159 203.627 24.1335 203.436 24.4233 203.052C24.7131 202.669 24.858 202.179 24.858 201.582ZM29.2557 180.977C29.2557 182.375 28.8892 183.662 28.1562 184.838C27.4233 186.006 26.3111 186.943 24.8196 187.651C23.3281 188.349 21.4489 188.699 19.1818 188.699C16.8125 188.699 14.8864 188.332 13.4034 187.599C11.9205 186.858 10.8338 185.903 10.1435 184.736C9.45312 183.56 9.10795 182.324 9.10795 181.028C9.10795 180.057 9.27841 179.205 9.61931 178.472C9.9517 177.739 10.3991 177.125 10.9616 176.631C11.5156 176.136 12.125 175.761 12.7898 175.506L12.7898 175.403L2.81818 175.403L2.81818 168.347L29 168.347L29 175.352L25.7784 175.352L25.7784 175.506C26.4432 175.778 27.0398 176.17 27.5682 176.682C28.0881 177.185 28.5014 177.798 28.8082 178.523C29.1065 179.239 29.2557 180.057 29.2557 180.977ZM23.8352 178.369C23.8352 177.722 23.6477 177.168 23.2727 176.707C22.8892 176.239 22.3523 175.881 21.6619 175.633C20.9631 175.378 20.1364 175.25 19.1818 175.25C18.2102 175.25 17.3793 175.378 16.6889 175.633C15.9901 175.881 15.4574 176.239 15.0909 176.707C14.7159 177.168 14.5284 177.722 14.5284 178.369C14.5284 179.017 14.7159 179.571 15.0909 180.031C15.4574 180.483 15.9901 180.832 16.6889 181.08C17.3793 181.318 18.2102 181.437 19.1818 181.437C20.1534 181.437 20.9886 181.318 21.6875 181.08C22.3778 180.832 22.9105 180.483 23.2855 180.031C23.652 179.571 23.8352 179.017 23.8352 178.369ZM29.358 155.473C29.358 157.57 28.9574 159.376 28.1562 160.893C27.3466 162.402 26.1875 163.565 24.679 164.383C23.1619 165.193 21.3466 165.598 19.233 165.598C17.2045 165.598 15.4318 165.189 13.9148 164.371C12.3977 163.553 11.2173 162.398 10.3736 160.906C9.52983 159.415 9.10795 157.655 9.10795 155.626C9.10795 154.143 9.33807 152.801 9.79829 151.599C10.2585 150.398 10.9276 149.371 11.8054 148.518C12.6747 147.666 13.7315 147.01 14.9758 146.55C16.2202 146.089 17.6222 145.859 19.1818 145.859L20.8182 145.859L20.8182 163.399L16.9318 163.399L16.9318 152.354C16.3693 152.362 15.875 152.507 15.4489 152.788C15.0142 153.061 14.6776 153.432 14.4389 153.901C14.1918 154.361 14.0682 154.885 14.0682 155.473C14.0682 156.044 14.1918 156.568 14.4389 157.045C14.6776 157.523 15.0099 157.906 15.4361 158.196C15.8622 158.477 16.3608 158.626 16.9318 158.643L21.125 158.643C21.7557 158.643 22.3182 158.511 22.8125 158.247C23.3068 157.983 23.6946 157.604 23.9758 157.109C24.2571 156.615 24.3977 156.018 24.3977 155.32C24.3977 154.834 24.3295 154.391 24.1932 153.99C24.0568 153.581 23.8608 153.232 23.6051 152.942C23.3409 152.652 23.0256 152.439 22.6591 152.303L22.6591 145.859C24.0227 146.081 25.2074 146.605 26.2131 147.432C27.2102 148.258 27.9858 149.354 28.5398 150.717C29.0852 152.072 29.358 153.658 29.358 155.473ZM29 135.808L9.36363 135.808L9.36363 128.751L29 128.751L29 135.808ZM7.31818 132.279C7.31818 133.234 7.00284 134.052 6.37216 134.734C5.74147 135.416 4.98295 135.757 4.09659 135.757C3.21022 135.757 2.4517 135.416 1.82102 134.734C1.19034 134.052 0.874997 133.234 0.874997 132.279C0.874996 131.316 1.19034 130.498 1.82102 129.825C2.4517 129.143 3.21022 128.802 4.09659 128.802C4.98295 128.802 5.74147 129.143 6.37216 129.825C7.00284 130.498 7.31818 131.316 7.31818 132.279ZM17.9545 118.099L29 118.099L29 125.156L9.36363 125.156L9.36363 118.457L13.0966 118.457L13.0966 118.252C11.8523 117.826 10.8764 117.076 10.169 116.002C9.46164 114.92 9.10795 113.658 9.10795 112.218C9.10795 110.829 9.42755 109.623 10.0668 108.6C10.6974 107.569 11.5668 106.772 12.6747 106.209C13.7827 105.638 15.0483 105.357 16.4716 105.366L29 105.366L29 112.423L17.9545 112.423C16.9829 112.414 16.2202 112.661 15.6662 113.164C15.1122 113.658 14.8352 114.349 14.8352 115.235C14.8352 115.815 14.9631 116.322 15.2187 116.756C15.4659 117.182 15.8239 117.511 16.2926 117.741C16.7528 117.971 17.3068 118.09 17.9545 118.099ZM29 94.7613L23.8864 94.7613L15.8068 84.9943C15.2699 84.3466 14.767 83.7926 14.2983 83.3324C13.821 82.8636 13.331 82.5056 12.8281 82.2585C12.3253 82.0028 11.767 81.875 11.1534 81.875C10.4801 81.875 9.90482 82.0199 9.42755 82.3096C8.95028 82.5909 8.5838 82.9829 8.32812 83.4858C8.06391 83.9886 7.93181 84.5681 7.93181 85.2244C7.93181 85.8806 8.06391 86.4602 8.32812 86.963C8.59232 87.4574 8.98011 87.8409 9.49147 88.1136C10.0028 88.3863 10.625 88.5227 11.3579 88.5227L11.3579 95.2727C9.51704 95.2727 7.93181 94.8593 6.60227 94.0326C5.27272 93.2059 4.25 92.0383 3.53409 90.5298C2.81818 89.0213 2.46022 87.2528 2.46022 85.2244C2.46022 83.1278 2.79687 81.3125 3.47017 79.7784C4.13494 78.2358 5.07244 77.0468 6.28267 76.2116C7.49289 75.3679 8.91193 74.946 10.5398 74.946C11.5454 74.946 12.5469 75.1548 13.544 75.5724C14.5327 75.99 15.6278 76.74 16.8295 77.8224C18.0312 78.9048 19.4631 80.4431 21.125 82.4375L23.1704 84.892L23.3239 84.892L23.3239 74.6647L29 74.6647L29 94.7613ZM29.7159 60.0845C29.7074 62.4623 29.1577 64.5163 28.0668 66.2464C26.9758 67.9765 25.4034 69.3103 23.3494 70.2478C21.2954 71.1853 18.8324 71.6498 15.9602 71.6413C13.0795 71.6328 10.6335 71.164 8.62215 70.2351C6.61079 69.2976 5.08096 67.968 4.03266 66.2464C2.98437 64.5163 2.46022 62.4623 2.46022 60.0845C2.46022 57.7066 2.98863 55.6527 4.04545 53.9226C5.09374 52.1924 6.62357 50.8586 8.63494 49.9211C10.6463 48.9836 13.0881 48.5191 15.9602 48.5277C18.8494 48.5277 21.321 48.9964 23.375 49.9339C25.429 50.8714 27.0014 52.2052 28.0923 53.9353C29.1747 55.6569 29.7159 57.7066 29.7159 60.0845ZM23.9375 60.0845C23.9375 58.8572 23.2983 57.8515 22.0199 57.0674C20.7329 56.2748 18.7131 55.8828 15.9602 55.8913C14.1619 55.8913 12.6918 56.0703 11.5497 56.4282C10.4077 56.7862 9.56391 57.2805 9.01846 57.9112C8.46448 58.5419 8.18749 59.2663 8.18749 60.0845C8.18749 61.3118 8.80965 62.3132 10.054 63.0887C11.2983 63.8643 13.267 64.2606 15.9602 64.2777C17.7926 64.2862 19.3011 64.1115 20.4858 63.7535C21.6619 63.3956 22.5312 62.9012 23.0937 62.2706C23.6562 61.6314 23.9375 60.9027 23.9375 60.0845ZM29 45.191L23.8864 45.191L15.8068 35.424C15.2699 34.7762 14.767 34.2223 14.2983 33.762C13.821 33.2933 13.331 32.9353 12.8281 32.6882C12.3253 32.4325 11.767 32.3047 11.1534 32.3047C10.4801 32.3047 9.90482 32.4495 9.42755 32.7393C8.95028 33.0206 8.5838 33.4126 8.32812 33.9155C8.06391 34.4183 7.93181 34.9978 7.93181 35.6541C7.93181 36.3103 8.06391 36.8899 8.32812 37.3927C8.59232 37.887 8.98011 38.2706 9.49147 38.5433C10.0028 38.816 10.625 38.9524 11.3579 38.9524L11.3579 45.7024C9.51704 45.7024 7.93181 45.289 6.60227 44.4623C5.27272 43.6356 4.24999 42.468 3.53408 40.9595C2.81817 39.451 2.46022 37.6825 2.46022 35.6541C2.46022 33.5575 2.79687 31.7422 3.47016 30.2081C4.13494 28.6655 5.07244 27.4765 6.28266 26.6413C7.49289 25.7976 8.91192 25.3757 10.5398 25.3757C11.5454 25.3757 12.5469 25.5845 13.544 26.0021C14.5327 26.4197 15.6278 27.1697 16.8295 28.2521C18.0312 29.3345 19.4631 30.8728 21.125 32.8672L23.1704 35.3217L23.3239 35.3217L23.3239 25.0944L29 25.0944L29 45.191ZM29.3579 11.6903C29.3579 13.7528 29.0043 15.5852 28.2969 17.1875C27.581 18.7812 26.5966 20.0341 25.3437 20.946C24.0909 21.8579 22.6506 22.3181 21.0227 22.3267L21.0227 15.1676C21.5256 15.1591 21.9773 15.0056 22.3778 14.7074C22.7699 14.4005 23.0767 13.9829 23.2983 13.4545C23.5199 12.9261 23.6307 12.321 23.6307 11.6392C23.6307 10.9829 23.5156 10.4034 23.2855 9.90054C23.0469 9.39769 22.7187 9.00565 22.3011 8.7244C21.8835 8.44315 21.4062 8.30679 20.8693 8.31531C20.3409 8.30679 19.8722 8.46872 19.4631 8.8011C19.054 9.12497 18.7344 9.58093 18.5043 10.169C18.2741 10.7571 18.1591 11.4346 18.1591 12.2017L18.1591 14.8608L13.25 14.8608L13.25 12.2017C13.25 11.4943 13.1349 10.8721 12.9048 10.3352C12.6747 9.78974 12.3551 9.36787 11.946 9.06957C11.5369 8.76275 11.0682 8.6136 10.5398 8.62213C10.0284 8.6136 9.5767 8.73718 9.18465 8.99287C8.79261 9.24855 8.48579 9.6065 8.2642 10.0667C8.04261 10.5184 7.93181 11.0426 7.93181 11.6392C7.93181 12.2869 8.04687 12.8664 8.27698 13.3778C8.50709 13.8807 8.8267 14.277 9.23579 14.5667C9.64488 14.8565 10.1136 15.0057 10.642 15.0142L10.642 21.8153C9.03977 21.8068 7.62499 21.3679 6.39772 20.4985C5.17045 19.6207 4.20738 18.419 3.50851 16.8934C2.80965 15.3679 2.46022 13.6164 2.46022 11.6392C2.46022 9.70451 2.78834 7.99571 3.44459 6.51275C4.10084 5.02127 5.00425 3.85792 6.15482 3.0227C7.29687 2.17894 8.60511 1.76133 10.0795 1.76985C11.5454 1.75281 12.7472 2.25565 13.6847 3.27838C14.6222 4.29258 15.1761 5.57951 15.3466 7.13917L15.5511 7.13917C15.7812 5.02554 16.429 3.43605 17.4943 2.37071C18.5511 1.30536 19.8807 0.781217 21.4829 0.798263C23.017 0.78974 24.3764 1.24997 25.5611 2.17894C26.7457 3.0994 27.6747 4.38207 28.348 6.02696C29.0213 7.66332 29.3579 9.5511 29.3579 11.6903Z" fill="currentColor"/>
</svg>
